/* XPM */
static char *prob[] = {
/* columns rows colors chars-per-pixel */
"32 32 121 2",
"   c #0C3B67",
".  c #0D3E6C",
"X  c #113F6B",
"o  c #0D406F",
"O  c #13416D",
"+  c #1B456E",
"@  c #0D4171",
"#  c #124575",
"$  c #1D4973",
"%  c #174B7C",
"&  c #194C7C",
"*  c #1D507F",
"=  c #244D74",
"-  c #255077",
";  c #26527B",
":  c #29547C",
">  c #30577D",
",  c #345A7E",
"<  c #1E5283",
"1  c #245584",
"2  c #2A5680",
"3  c #2C5A84",
"4  c #24598A",
"5  c #2B5E8E",
"6  c #355C82",
"7  c #305F88",
"8  c #2B5F90",
"9  c #2F618F",
"0  c #3E6284",
"q  c #35628C",
"w  c #2C6091",
"e  c #326596",
"r  c #396793",
"t  c #3D6B96",
"y  c #326798",
"u  c #376A99",
"i  c #396D9E",
"p  c #3F74A5",
"a  c #456685",
"s  c #466887",
"d  c #426789",
"f  c #4D6D8A",
"g  c #56738E",
"h  c #5A768F",
"j  c #426F99",
"k  c #43719B",
"l  c #587691",
"z  c #5D7A92",
"x  c #567C9E",
"c  c #5E7E9A",
"v  c #657F96",
"b  c #657F98",
"n  c #4374A3",
"m  c #4778A5",
"M  c #4B7BA5",
"N  c #467BAB",
"B  c #497DAC",
"V  c #4B7FB0",
"C  c #678196",
"Z  c #668199",
"A  c #6E869A",
"S  c #758C9E",
"D  c #4E80AF",
"F  c #5F82A0",
"G  c #5B84A9",
"H  c #4C81B2",
"J  c #6E89A1",
"K  c #718CA3",
"L  c #7D92A2",
"P  c #7490A8",
"I  c #7C94A8",
"U  c #678EB0",
"Y  c #7C9FBD",
"T  c #8496A6",
"R  c #8699A6",
"E  c #889AA7",
"W  c #8296A9",
"Q  c #879BAC",
"!  c #8D9EAA",
"~  c #8DA1B1",
"^  c #94A5B2",
"/  c #9CABB6",
"(  c #9CADB9",
")  c #A1AEB7",
"_  c #A1AFB9",
"`  c #A4B2BB",
"'  c #AAB6BE",
"]  c #ACB8BF",
"[  c #8AA7C0",
"{  c #91ACC2",
"}  c #9FB6C6",
"|  c #9BB6CB",
" . c #A7B6C0",
".. c #ADBAC2",
"X. c #A3BBCD",
"o. c #B3BDC4",
"O. c #B6C0C7",
"+. c #BAC4C9",
"@. c #BFC8CC",
"#. c #BCCAD2",
"$. c #C0C7CB",
"%. c #C2CACD",
"&. c #C8CECF",
"*. c #C4CED1",
"=. c #C9CFD1",
"-. c #CDD3D3",
";. c #C3D1DA",
":. c #D3D8D7",
">. c #D4DAD9",
",. c #D8DCDA",
"<. c #DFE1DD",
"1. c #E4E7E4",
"2. c #EBEBE5",
"3. c #E9ECE8",
"4. c #F0EFE7",
"5. c #F1EFE8",
"6. c #F4F2EA",
"7. c #F9F6ED",
"8. c #FCF9EE",
"9. c #FFFBF0",
"0. c None",
/* pixels */
"0._ +.O.O.o.o.o.o.o.o.......] ' ' ..%.,.,.] ` ` ` ` ` _ ) ) E 0.",
"/ ` ! ! ! ! ! ! ! ! ! ! ! ! ! ! ! ! &.9.9./ ! ! ! ! ! ! ! ! ^ T ",
"..T T T T T T T T T T T T T T T ) &.2.9.9.` R R R R R R R R E ! ",
"` L L L L L L L L L L L L L L ` 8.9.9.9.9.o.L L L L L L L L L R ",
"( S S T R R R R R T S S S S S ! +.-.$.9.9.%.S S S S S S S S S L ",
"^ A -.9.9.9.9.9.9.9.6.,.' A A A A A A >.9.6.E A A A A A A A A S ",
"~ A 8.9.9.7.7.7.8.9.9.9.9.<.L v v v T :.9.9.-.A C C C C C C C A ",
"Q A 9.9.9.v z z z S / 4.9.9.2.C z L 2.9.9.9.9./ z z z z z z z v ",
"I C 9.9.9.z g g g g g v 2.9.9.@.g o.9.4._ 7.9.7._ z g g g g g h ",
"K z 9.9.9.g f f f f f f I 9.9.5.f Z S z f ! 9.9.9.-.S f f f f g ",
"J l 9.9.9.f a a a a a a f 8.9.9.z s s s f @.9.9.9.9.7.%.` W z a ",
"l s 9.9.9.s 0 0 0 0 0 0 s 8.9.9.g 0 0 0 A 9.9.` %.9.9.9.9.9.9.E ",
"0 = 9.9.9.= = = : > , , Z 9.9.2.6 6 6 , L 2.W = $ =.9.9.9.9.9.R ",
"0 - 9.9.9.O           O -.9.9...O O .   X =     , 9.9.b s o.9.R ",
"6 - 9.9.9.O . . . . : @.9.9.2.- . . . . . . . . , 9.-.$ . ^ 9.T ",
"6 ; 9.9.9. .` `  .-.7.9.9.7.d . . . . . . . . . $ W > . . z 9.g ",
"6 ; 9.9.9.9.9.9.9.9.9.9.9.7.Q # . . . . . . . . . . . . . # K + ",
"6 ; 9.9.9.K K K K I ` :.9.9.9.>.$ . . . . . . . . . . . . . .   ",
"3 : 9.9.9.# . . . . . . c 2.9.9.*.# o o o o o o o o o o o o o   ",
"2 : 9.9.9.# @ @ @ @ @ @ @ 6 6.9.9.K @ @ @ @ @ @ @ @ @ @ @ @ @   ",
"2 2 9.9.9.# @ @ @ @ @ @ @ @ P 9.9.1.# @ @ @ @ @ @ @ @ @ @ @ @ . ",
"2 2 9.9.9.% @ @ # # # # # # ; 9.9.9.q # # # # # # # # # # # # . ",
"3 7 9.9.9.* % % % % % % % % % 1.9.9.F % % % % % % % & & & & & # ",
"3 q 9.9.9.1 < < < < < < < < < 6.9.9.x < < < < < < < < < < < < & ",
"q t 9.9.9.5 4 4 4 4 4 4 4 4 j 9.9.8.9 4 4 4 4 4 4 4 4 4 4 4 4 & ",
"q k 9.9.9.e 5 8 8 8 8 8 8 8 #.9.9.,.8 8 8 w w w w w w w w w w 1 ",
"r m 9.9.9.u e e e e e e u } 9.9.7.G e e e e y y y y y y y y y 3 ",
"t M 9.9.9.M M M M M U [ 1.9.9.9.{ i i i i i i i i i i i i i i 5 ",
"j m 8.9.9.9.9.9.9.9.9.9.9.9.3.Y p p p p p p p p n n n n n n n e ",
"k N X.8.9.9.9.9.9.9.9.3.;.| D N N N N N N N N N N N N N N N N i ",
"m m V H H H H H H H H H H H H H H H H H H H H H H H H H H B i B ",
"0.D m m m n n n n n n n n n n n n n n n n n n n n n n n n m H 0."
};
